<svg width="23" height="17" viewBox="0 0 23 17" fill="none" xmlns="http://www.w3.org/2000/svg">
<path d="M21.7287 7.16629L18.4893 5.87111L16.6067 1.47794C16.2216 0.580121 15.3424 0 14.3658 0H6.91355C5.83131 0 4.86688 0.72719 4.5695 1.768L3.44987 5.6875H1.625C0.728811 5.6875 0 6.41634 0 7.3125V12.1875C0 13.0837 0.728811 13.8125 1.625 13.8125H3.36538C3.72856 15.21 4.99038 16.25 6.5 16.25C8.00961 16.25 9.27145 15.21 9.63461 13.8125H13.1154C13.4786 15.21 14.7404 16.25 16.25 16.25C17.7596 16.25 19.0214 15.21 19.3846 13.8125H21.125C22.0212 13.8125 22.75 13.0837 22.75 12.1875V8.67505C22.75 8.00639 22.3494 7.41405 21.7287 7.16629ZM6.5 14.625C5.60381 14.625 4.875 13.8962 4.875 13C4.875 12.1038 5.60381 11.375 6.5 11.375C7.39616 11.375 8.125 12.1038 8.125 13C8.125 13.8962 7.39616 14.625 6.5 14.625ZM16.25 14.625C15.3538 14.625 14.625 13.8962 14.625 13C14.625 12.1038 15.3538 11.375 16.25 11.375C17.1462 11.375 17.875 12.1038 17.875 13C17.875 13.8962 17.1462 14.625 16.25 14.625ZM21.125 12.1875H19.3846C19.0214 10.79 17.7596 9.75 16.25 9.75C14.7404 9.75 13.4786 10.79 13.1154 12.1875H9.63461C9.27145 10.79 8.00961 9.75 6.5 9.75C4.99038 9.75 3.72856 10.79 3.36538 12.1875H1.625V7.3125H4.0625C4.42488 7.3125 4.74419 7.072 4.84331 6.72345L6.13111 2.21487C6.23105 1.86712 6.552 1.625 6.91355 1.625H14.3658C14.6908 1.625 14.9841 1.81837 15.1125 2.11737L17.1275 6.82011C17.212 7.01839 17.3721 7.17439 17.5719 7.25484L21.125 8.67505V12.1875Z" fill="#050B20"/>
<path d="M10.1118 9.61361C9.73884 9.365 9.63813 8.86045 9.88674 8.48666L10.6692 7.31261H9.75024C9.45047 7.31261 9.17503 7.14766 9.03363 6.88361C8.89224 6.61956 8.90769 6.29861 9.07424 6.05L10.6992 3.6125C10.9478 3.23879 11.4525 3.138 11.8262 3.38745C12.1991 3.63606 12.2998 4.14061 12.0512 4.5144L11.2688 5.68761H12.1877C12.4876 5.68761 12.763 5.85256 12.9043 6.11661C13.0457 6.38066 13.0303 6.70161 12.8637 6.95029L11.2387 9.38779C10.9893 9.76234 10.484 9.86229 10.1118 9.61361Z" fill="#050B20"/>
</svg>
