<svg width="24" height="24" viewBox="0 0 24 24" fill="none" xmlns="http://www.w3.org/2000/svg">
  <path d="M17.05 13.5C17.05 12.22 17.96 11.16 19.15 11.16C20.28 11.16 21.19 12.05 21.19 13.22C21.19 14.52 20.35 15.35 19.04 15.35C17.94 15.35 17.05 14.45 17.05 13.5Z" fill="currentColor"/>
  <path d="M10.89 13.5C10.89 12.22 11.8 11.16 12.99 11.16C14.12 11.16 15.03 12.05 15.03 13.22C15.03 14.52 14.19 15.35 12.88 15.35C11.78 15.35 10.89 14.45 10.89 13.5Z" fill="currentColor"/>
  <path d="M20.5 6.5C20.5 5.12 19.38 4 18 4H6C4.62 4 3.5 5.12 3.5 6.5V17.5C3.5 18.88 4.62 20 6 20H18C19.38 20 20.5 18.88 20.5 17.5V6.5ZM8.5 7.5C8.5 7.36 8.36 7.25 8.2 7.25H6.8C6.64 7.25 6.5 7.36 6.5 7.5V8.8C6.5 8.94 6.64 9.05 6.8 9.05H8.2C8.36 9.05 8.5 8.94 8.5 8.8V7.5ZM14.5 7.5C14.5 7.36 14.36 7.25 14.2 7.25H12.8C12.64 7.25 12.5 7.36 12.5 7.5V8.8C12.5 8.94 12.64 9.05 12.8 9.05H14.2C14.36 9.05 14.5 8.94 14.5 8.8V7.5ZM20 17.5C20 18.05 19.55 18.5 19 18.5H5C4.45 18.5 4 18.05 4 17.5V10H20V17.5Z" fill="currentColor"/>
</svg>