<svg width="19" height="22" viewBox="0 0 19 22" fill="none" xmlns="http://www.w3.org/2000/svg">
<path d="M15.332 11.5723C15.332 11.6699 15.1855 14.5508 18.3594 16.0645C17.7734 17.8711 15.7227 21.875 13.3301 21.875C11.9629 21.875 11.1816 20.9961 9.61914 20.9961C8.00781 20.9961 7.12891 21.875 5.9082 21.875C3.56445 21.9727 1.31836 17.5781 0.683594 15.7715C0.195312 14.4043 0 13.0859 0 11.8164C0 7.4707 2.88086 5.37109 5.61523 5.32227C6.93359 5.32227 8.59375 6.25 9.32617 6.25C10.0098 6.25 11.9141 5.12695 13.6719 5.27344C15.4785 5.41992 16.8457 6.10352 17.7734 7.42188C16.1621 8.44727 15.332 9.76562 15.332 11.5723ZM12.5977 3.56445C11.6211 4.6875 10.4492 5.32227 9.17969 5.22461C9.08203 3.90625 9.57031 2.68555 10.4492 1.70898C11.2305 0.830078 12.5977 0.0976562 13.7695 0C13.7695 0.537109 13.916 2.00195 12.5977 3.56445Z" fill="white"/>
<a href="https://www.figma.com/design/PzQUNVEIeMrv8HjdXbjYra?node-id=14-4098">
<rect fill="black" fill-opacity="0" y="-1.875" width="18.75" height="28.75"/>
</a>
</svg>
