<svg width="24" height="24" viewBox="0 0 24 24" fill="none" xmlns="http://www.w3.org/2000/svg">
  <path d="M3 20.5V3.5C3 3.23 3.23 3 3.5 3H20.5C20.77 3 21 3.23 21 3.5V20.5C21 20.77 20.77 21 20.5 21H3.5C3.23 21 3 20.77 3 20.5ZM7 15H9V9H7V15ZM8 7.5C8.83 7.5 9.5 6.83 9.5 6C9.5 5.17 8.83 4.5 8 4.5C7.17 4.5 6.5 5.17 6.5 6C6.5 6.83 7.17 7.5 8 7.5ZM20 15H18V12C18 11.07 17.07 10 16 10C14.93 10 14 11.07 14 12V15H12V9H14V9.75C14.75 8.96 16 8.5 16 8.5C18.34 8.5 20 10.16 20 12.5V15Z" fill="currentColor"/>
</svg>