<svg width="7" height="12" viewBox="0 0 7 12" fill="none" xmlns="http://www.w3.org/2000/svg">
<path d="M6.59449 6.6L1.4388 11.76C1.27893 11.92 1.08576 12 0.859281 12C0.632804 12 0.432971 11.92 0.259783 11.76C0.0865942 11.6 0 11.4 0 11.16C0 10.92 0.0932554 10.72 0.279766 10.56L4.83596 6L0.279766 1.44C0.0932554 1.28 0 1.08 0 0.84C0 0.6 0.0865942 0.400001 0.259783 0.240001C0.432971 0.0799999 0.632804 0 0.859281 0C1.08576 0 1.27893 0.0799999 1.4388 0.240001L6.59449 5.4C6.781 5.56 6.87425 5.76 6.87425 6C6.87425 6.24 6.781 6.44 6.59449 6.6Z" fill="#050B20"/>
</svg>
