<svg width="94" height="94" viewBox="0 0 94 94" fill="none" xmlns="http://www.w3.org/2000/svg">
<g clip-path="url(#clip0_5_4351)">
<path d="M14.9215 38.7086C14.9215 21.1656 27.8139 6.63367 44.6409 4.07065C42.9062 3.80629 41.1295 3.66925 39.3209 3.66925C19.969 3.66925 4.28125 19.3571 4.28125 38.7088C4.28125 58.0606 19.969 73.7484 39.3209 73.7484C41.1295 73.7484 42.9062 73.6112 44.6409 73.3468C27.814 70.7836 14.9215 56.2519 14.9215 38.7086Z" fill="white" fill-opacity="0.2"/>
<path d="M38.7438 77.4173C17.3997 77.4173 0.0351562 60.0527 0.0351562 38.7086C0.0351562 17.3646 17.3997 0 38.7438 0C60.0878 0 77.4524 17.3646 77.4524 38.7086C77.4524 60.0527 60.0878 77.4173 38.7438 77.4173ZM38.7438 7.33813C21.446 7.33813 7.37328 21.4108 7.37328 38.7086C7.37328 56.0065 21.446 70.0792 38.7438 70.0792C56.0416 70.0792 70.1143 56.0065 70.1143 38.7086C70.1143 21.4108 56.0416 7.33813 38.7438 7.33813Z" fill="#405FF2"/>
<path d="M90.2932 94C89.3543 94 88.4152 93.6419 87.6986 92.9255L71.2796 76.5064C69.8468 75.0735 69.8468 72.7502 71.2796 71.3175C72.7125 69.8845 75.0358 69.8845 76.4685 71.3175L92.8876 87.7365C94.3204 89.1695 94.3204 91.4927 92.8876 92.9255C92.1712 93.6417 91.2321 94 90.2932 94ZM43.173 49.0978L57.6726 34.5072C59.101 33.0698 59.0937 30.7468 57.6563 29.3184C56.2193 27.8902 53.8963 27.897 52.4675 29.3347L37.965 43.9284C37.1969 44.703 36.178 45.1297 35.096 45.1297C34.0139 45.1297 32.995 44.703 32.2271 43.9284L25.2043 36.8449C23.7776 35.4059 21.4546 35.3957 20.0155 36.8226C18.5765 38.2493 18.5666 40.5723 19.9932 42.0114L27.0161 49.0948C29.1728 51.2699 32.0422 52.4676 35.0961 52.4676C38.1501 52.4676 41.0195 51.2699 43.173 49.0978Z" fill="white"/>
</g>
<defs>
<clipPath id="clip0_5_4351">
<rect width="94" height="94" fill="white"/>
</clipPath>
</defs>
</svg>
